<svg xmlns="http://www.w3.org/2000/svg" width="341.36" height="181.492" viewBox="0 0 341.36 181.492">
  <g id="Group_8" data-name="Group 8" transform="translate(0)">
    <text id="Driving" transform="translate(61.132 87)" fill="#fff" font-size="87" font-family="AtramentSemiBold-Regular, Atrament"><tspan x="0" y="0">Driving</tspan></text>
    <text id="Future" transform="translate(150.274 164.492)" fill="#fff" font-size="87" font-family="AtramentSemiBold-Regular, Atrament"><tspan x="0" y="0">Future</tspan></text>
    <g id="Group_1" data-name="Group 1" transform="translate(0 103.338)">
      <path id="Path_2" data-name="Path 2" d="M152.621,474.863a.47.47,0,0,0,.38.533c11.271,2.077,20.722,5.233,27.335,9.12,6.74,3.967,10.5,8.7,10.856,13.675.263,3.6-1.193,7.262-4.33,10.89-11.6,13.424-44.216,24.249-81.157,26.939a222.384,222.384,0,0,1-42.139-.772.474.474,0,0,0-.522.4.469.469,0,0,0,.38.532c15.407,2.842,33.428,3.623,52.114,2.265,23.624-1.722,45.6-6.668,61.877-13.932,16.422-7.328,25.116-16.171,24.479-24.906-.438-6.034-5.375-11.573-14.274-16.019-8.543-4.267-20.465-7.422-34.476-9.121A.471.471,0,0,0,152.621,474.863Z" transform="translate(-63.037 -474.463)" fill="#f7be00"/>
      <path id="Path_3" data-name="Path 3" d="M165.889,476.636a.472.472,0,0,0,.38.535c16.564,3.055,26.763,9.121,27.28,16.226.215,2.946-1.193,5.939-4.187,8.9-2.947,2.916-7.286,5.666-12.893,8.166-11.59,5.17-27.251,8.694-44.1,9.921a159.478,159.478,0,0,1-30.193-.553.471.471,0,0,0-.142.931,150.273,150.273,0,0,0,37.406,1.622c16.957-1.233,32.73-4.784,44.419-10,11.832-5.279,18.094-11.669,17.635-17.992-.32-4.377-3.884-8.386-10.31-11.6-6.141-3.068-14.705-5.334-24.768-6.553A.47.47,0,0,0,165.889,476.636Z" transform="translate(-83.71 -475.413)" fill="#f7be00"/>
      <path id="Path_4" data-name="Path 4" d="M176.176,479.112a.471.471,0,0,0,.378.536c11.528,2.143,18.65,6.227,19.052,10.922a6.574,6.574,0,0,1-1.9,4.846c-5.567,6.446-21.852,11.533-40.522,12.661a116.193,116.193,0,0,1-21.07-.568.47.47,0,0,0-.145.928,109.645,109.645,0,0,0,26.17,1.339c18.907-1.143,35.455-6.362,41.177-12.986a7.474,7.474,0,0,0,2.125-5.544c-.257-2.99-2.8-5.744-7.359-7.96-4.321-2.1-10.333-3.681-17.383-4.569A.473.473,0,0,0,176.176,479.112Z" transform="translate(-99.74 -476.739)" fill="#f7be00"/>
    </g>
    <g id="Group_3" data-name="Group 3" transform="translate(275.324 53.292)">
      <g id="Group_2" data-name="Group 2">
        <path id="Path_5" data-name="Path 5" d="M680.977,379.954a34.925,34.925,0,0,1-1.081,8.593,29.627,29.627,0,0,1-3.091,7.714,18.581,18.581,0,0,1-4.85,5.578,10.246,10.246,0,0,1-6.307,2.136,8.776,8.776,0,0,1-7.362-3.618,12.032,12.032,0,0,1-1.935-4.1,20.072,20.072,0,0,1-.653-5.3,36.137,36.137,0,0,1,1.056-8.594,30.432,30.432,0,0,1,3.015-7.79,18.5,18.5,0,0,1,4.8-5.654,10.3,10.3,0,0,1,6.458-2.186,9.143,9.143,0,0,1,4.322.98,8.981,8.981,0,0,1,3.116,2.714,12.248,12.248,0,0,1,1.884,4.171A21.42,21.42,0,0,1,680.977,379.954Zm-4.674.62a32.927,32.927,0,0,0-.2-3.625,11.356,11.356,0,0,0-.8-3.222,5.879,5.879,0,0,0-1.683-2.291,4.356,4.356,0,0,0-2.84-.881,5.579,5.579,0,0,0-3.116.956,10.139,10.139,0,0,0-2.614,2.543,18.819,18.819,0,0,0-2.06,3.7,31.7,31.7,0,0,0-1.508,4.4,36.433,36.433,0,0,0-.9,4.631,34.573,34.573,0,0,0-.3,4.4,18.581,18.581,0,0,0,.3,3.424,8.84,8.84,0,0,0,.98,2.795,5.451,5.451,0,0,0,1.758,1.887,4.727,4.727,0,0,0,2.639.7,6.075,6.075,0,0,0,4.322-1.837,15.58,15.58,0,0,0,3.241-4.682,28.874,28.874,0,0,0,2.061-6.292A32.073,32.073,0,0,0,676.3,380.574Z" transform="translate(-655.698 -366.736)" fill="#fff"/>
        <path id="Path_6" data-name="Path 6" d="M732.81,390.861h4.07l-3.266,18.8q-.051.4-.2,1.307t-.3,1.91q-.15,1.006-.276,1.909t-.176,1.257h-4.021q.1-.7.277-1.985t.376-2.488h-.1a10.468,10.468,0,0,1-2.814,3.794,6.268,6.268,0,0,1-4.172,1.533,5.24,5.24,0,0,1-2.462-.528,4.684,4.684,0,0,1-1.633-1.382,5.506,5.506,0,0,1-.9-1.96,9.281,9.281,0,0,1-.276-2.261q0-.7.1-1.759a20.275,20.275,0,0,1,.3-2.06l2.765-16.082h4.12l-2.764,16.082q-.1.705-.2,1.407a9.889,9.889,0,0,0-.1,1.408,4.865,4.865,0,0,0,.578,2.463,2.354,2.354,0,0,0,2.236,1,4.181,4.181,0,0,0,2.136-.6,6.649,6.649,0,0,0,1.859-1.659,10.765,10.765,0,0,0,1.433-2.488,14.615,14.615,0,0,0,.9-3.141Z" transform="translate(-688.484 -379.654)" fill="#fff"/>
        <path id="Path_7" data-name="Path 7" d="M780.086,393.727a3.629,3.629,0,0,0-.4-.076,3.876,3.876,0,0,0-.452-.025,3.739,3.739,0,0,0-2.261.779,8.489,8.489,0,0,0-1.91,2.01,12.9,12.9,0,0,0-1.457,2.84,18.842,18.842,0,0,0-.9,3.266l-2.211,12.766h-4.121l3.267-18.8q.049-.4.2-1.307t.3-1.909q.151-1,.276-1.91t.176-1.256h3.97q-.051.352-.151,1.08t-.226,1.533q-.125.8-.276,1.558t-.2,1.157h.151a10.586,10.586,0,0,1,2.915-4.524,5.687,5.687,0,0,1,3.668-1.457,2.03,2.03,0,0,1,.553.05Z" transform="translate(-714.954 -378.901)" fill="#fff"/>
      </g>
    </g>
  </g>
</svg>
